REM DIRINDEX 1\2\5,1\2\6,1\2\7,1\2\8,1\3\9,1\3\10,1\3\11,1\4\12,1\4\13,1\4\14,1\4\15,1\4\16
REM DIRNAME folder01,folder02,folder03,folder04,folder05,folder06,folder07,folder08,folder09,folder10,folder11,folder12,folder13,folder14,folder15,folder16
TITLE ""
FILE "1200_2_sec01_0115_0128.mp3" MP3
  TRACK 01 AUDIO
    TITLE "0:"
    INDEX 01 00:00:00
  TRACK 02 AUDIO
    TITLE "10:cjc034_00235"
    INDEX 01 00:00:15
  TRACK 03 AUDIO
    TITLE "0:"
    INDEX 01 00:01:19
  TRACK 04 AUDIO
    TITLE "9:cjc034_00236"
    INDEX 01 00:01:26
  TRACK 05 AUDIO
    TITLE "0:"
    INDEX 01 00:02:42
  TRACK 06 AUDIO
    TITLE "10:cjc034_00237"
    INDEX 01 00:03:23
  TRACK 07 AUDIO
    TITLE "0:"
    INDEX 01 00:04:25
  TRACK 08 AUDIO
    TITLE "9:cjc034_00238"
    INDEX 01 00:04:29
  TRACK 09 AUDIO
    TITLE "0:"
    INDEX 01 00:05:36
  TRACK 10 AUDIO
    TITLE "10:cjc034_00239"
    INDEX 01 00:06:20
  TRACK 11 AUDIO
    TITLE "0:"
    INDEX 01 00:07:27
  TRACK 12 AUDIO
    TITLE "9:cjc034_00240"
    INDEX 01 00:07:37
  TRACK 13 AUDIO
    TITLE "0:"
    INDEX 01 00:08:42
  TRACK 14 AUDIO
    TITLE "10:cjc034_00241"
    INDEX 01 00:09:26
  TRACK 15 AUDIO
    TITLE "0:"
    INDEX 01 00:10:51
  TRACK 16 AUDIO
    TITLE "9:cjc034_00242"
    INDEX 01 00:10:57
  TRACK 17 AUDIO
    TITLE "0:"
    INDEX 01 00:12:03
  TRACK 18 AUDIO
    TITLE "10:cjc034_00243"
    INDEX 01 00:12:56
  TRACK 19 AUDIO
    TITLE "0:"
    INDEX 01 00:13:57
  TRACK 20 AUDIO
    TITLE "9:cjc034_00244"
    INDEX 01 00:13:69
  TRACK 21 AUDIO
    TITLE "0:"
    INDEX 01 00:14:72
  TRACK 22 AUDIO
    TITLE "10:cjc034_00245"
    INDEX 01 00:15:58
  TRACK 23 AUDIO
    TITLE "0:"
    INDEX 01 00:16:63
  TRACK 24 AUDIO
    TITLE "9:cjc034_00246"
    INDEX 01 00:16:69
  TRACK 25 AUDIO
    TITLE "0:"
    INDEX 01 00:17:57
  TRACK 26 AUDIO
    TITLE "10:cjc034_00247"
    INDEX 01 00:18:54
  TRACK 27 AUDIO
    TITLE "0:"
    INDEX 01 00:20:06
  TRACK 28 AUDIO
    TITLE "9:cjc034_00248"
    INDEX 01 00:20:12
  TRACK 29 AUDIO
    TITLE "0:"
    INDEX 01 00:21:33
  TRACK 30 AUDIO
    TITLE "10:cjc034_00249"
    INDEX 01 00:22:13
  TRACK 31 AUDIO
    TITLE "0:"
    INDEX 01 00:23:42
  TRACK 32 AUDIO
    TITLE "9:cjc034_00250"
    INDEX 01 00:23:51
  TRACK 33 AUDIO
    TITLE "0:"
    INDEX 01 00:25:09
  TRACK 34 AUDIO
    TITLE "10:cjc034_00251"
    INDEX 01 00:25:66
  TRACK 35 AUDIO
    TITLE "0:"
    INDEX 01 00:30:48
  TRACK 36 AUDIO
    TITLE "9:cjc034_00252"
    INDEX 01 00:31:33
  TRACK 37 AUDIO
    TITLE "0:"
    INDEX 01 00:32:33
  TRACK 38 AUDIO
    TITLE "10:cjc034_00253"
    INDEX 01 00:33:21
  TRACK 39 AUDIO
    TITLE "0:"
    INDEX 01 00:34:18
  TRACK 40 AUDIO
    TITLE "9:cjc034_00254"
    INDEX 01 00:34:26
  TRACK 41 AUDIO
    TITLE "0:"
    INDEX 01 00:35:39
  TRACK 42 AUDIO
    TITLE "10:cjc034_00255"
    INDEX 01 00:36:21
  TRACK 43 AUDIO
    TITLE "0:"
    INDEX 01 00:37:12
  TRACK 44 AUDIO
    TITLE "9:cjc034_00256"
    INDEX 01 00:37:18
  TRACK 45 AUDIO
    TITLE "0:"
    INDEX 01 00:38:18
  TRACK 46 AUDIO
    TITLE "11:cjc034_00257"
    INDEX 01 00:39:68
  TRACK 47 AUDIO
    TITLE "0:"
    INDEX 01 00:41:30
  TRACK 48 AUDIO
    TITLE "10:cjc034_00258"
    INDEX 01 00:42:37
  TRACK 49 AUDIO
    TITLE "0:"
    INDEX 01 00:43:40
  TRACK 50 AUDIO
    TITLE "9:cjc034_00259"
    INDEX 01 00:43:44
  TRACK 51 AUDIO
    TITLE "0:"
    INDEX 01 00:44:48
  TRACK 52 AUDIO
    TITLE "10:cjc034_00260"
    INDEX 01 00:45:35
  TRACK 53 AUDIO
    TITLE "0:"
    INDEX 01 00:46:37
  TRACK 54 AUDIO
    TITLE "9:cjc034_00261"
    INDEX 01 00:46:39
  TRACK 55 AUDIO
    TITLE "0:"
    INDEX 01 00:47:66
  TRACK 56 AUDIO
    TITLE "10:cjc034_00262"
    INDEX 01 00:48:49
  TRACK 57 AUDIO
    TITLE "0:"
    INDEX 01 00:51:03
  TRACK 58 AUDIO
    TITLE "9:cjc034_00263"
    INDEX 01 00:51:11
  TRACK 59 AUDIO
    TITLE "0:"
    INDEX 01 00:52:36
